<svg width="14" height="12" viewBox="0 0 14 12" fill="none" xmlns="http://www.w3.org/2000/svg">
<path fill-rule="evenodd" clip-rule="evenodd" d="M13.8545 1.86658L5.23447 11.84C5.14596 11.9415 5.01659 12 4.8804 12C4.74421 12 4.61484 11.9415 4.52633 11.84L0.14551 7.87001C-0.0485341 7.64251 -0.0485341 7.31128 0.14551 7.08378L0.970121 6.16155C1.05619 6.05925 1.18433 6 1.31953 6C1.45474 6 1.58288 6.05925 1.66894 6.16155L4.87225 8.82075L12.3205 0.161554C12.4066 0.0592464 12.5348 0 12.67 0C12.8052 0 12.9333 0.0592464 13.0194 0.161554L13.8545 1.08035C14.0485 1.30785 14.0485 1.63908 13.8545 1.86658Z" fill="#07C777"/>
</svg>
